<svg width="622" height="863" viewBox="0 0 622 863" fill="none" xmlns="http://www.w3.org/2000/svg">
<ellipse cx="310.984" cy="254.484" rx="64" ry="63.5" fill="url(#paint0_linear_3860_1616)"/>
<path d="M442.068 196.763C449.856 214.438 454.182 233.982 454.182 254.536C454.182 326.03 401.873 385.303 333.44 396.179V355.769C379.813 345.42 414.476 304.027 414.476 254.536C414.475 240.619 411.733 227.341 406.762 215.215L442.068 196.763ZM214.713 215.277C209.757 227.387 207.026 240.643 207.026 254.536C207.026 303.782 241.346 345.011 287.372 355.614V396.069C219.278 384.906 167.32 325.789 167.32 254.536C167.32 234.006 171.635 214.483 179.405 196.824L214.713 215.277ZM310.751 111.105C352.777 111.105 390.581 129.181 416.814 157.98L379.934 177.256C361.579 160.813 337.333 150.812 310.751 150.812C284.143 150.812 259.875 160.832 241.514 177.304L204.64 158.032C230.875 129.202 268.7 111.106 310.751 111.105Z" fill="url(#paint1_linear_3860_1616)"/>
<path d="M538.441 145.809C539.495 150.501 540.046 155.345 540.046 160.268V348.804C540.046 372.383 527.466 394.172 507.046 405.962L343.77 500.23C340.442 502.151 336.987 503.757 333.449 505.052V428.525C419.632 417.402 486.219 343.745 486.219 254.534C486.219 228.441 480.518 203.679 470.301 181.422L538.441 145.809ZM150.97 182.024C140.925 204.125 135.33 228.676 135.33 254.534C135.33 343.497 201.545 416.991 287.38 428.429V504.788C284.089 503.541 280.874 502.022 277.77 500.23L114.492 405.962C94.0718 394.172 81.4923 372.383 81.4922 348.804V160.268C81.4922 155.577 81.9908 150.957 82.9492 146.473L150.97 182.024ZM277.77 8.84191C298.19 -2.94703 323.35 -2.94758 343.77 8.84191L507.046 103.11C509.151 104.326 511.172 105.65 513.105 107.068L445.646 142.326C413.463 103.686 364.992 79.0905 310.774 79.09C256.313 79.09 207.647 103.905 175.467 142.845L107.846 107.503C109.955 105.918 112.173 104.449 114.492 103.11L277.77 8.84191Z" fill="url(#paint2_linear_3860_1616)"/>
<g clip-path="url(#clip0_3860_1616)">
<path fill-rule="evenodd" clip-rule="evenodd" d="M0 575V711.067H78.7867V684.8H36.5598V575.104L0 575Z" fill="#282781"/>
<path fill-rule="evenodd" clip-rule="evenodd" d="M373.722 632.649H342.241L317.258 711.552H445.286L402.161 575.312H368.124L400.018 679.652H362.94L373.722 632.649Z" fill="#282781"/>
<path fill-rule="evenodd" clip-rule="evenodd" d="M146.136 632.649H114.69L89.6719 711.552H217.7L174.575 575.312H140.538L172.432 679.652H135.354L146.136 632.649Z" fill="#282781"/>
<path fill-rule="evenodd" clip-rule="evenodd" d="M226.028 711.552H293.861C293.861 711.552 319.984 705.504 319.984 677.648C319.984 677.648 323.751 659.261 301.877 645.16C301.877 645.16 319.984 638.836 319.984 608.076C319.984 608.076 321.159 584.54 293.861 575.312H226.028V607.523H272.298C273.847 607.633 275.359 608.047 276.747 608.743C278.135 609.439 279.372 610.402 280.387 611.578C281.402 612.753 282.174 614.118 282.66 615.593C283.146 617.068 283.335 618.624 283.217 620.173C283.217 620.173 284.358 632.822 276.306 632.822H225.613V659.538H276.168C276.168 659.538 283.356 660.678 283.356 670.459C283.356 670.459 284.496 682.244 277.032 682.244H226.028V711.552Z" fill="#282781"/>
<path fill-rule="evenodd" clip-rule="evenodd" d="M546.114 678.79V625.324H503.473V712.107H575.037C575.037 712.107 622.033 701.739 622.033 638.803C622.033 638.803 623.761 588.793 568.161 575.867H503.887V606.039H551.747C551.747 606.039 584.505 604.76 584.505 644.402C584.505 644.298 587.512 680.518 546.114 678.79Z" fill="#282781"/>
<path d="M486.233 627.773H450.883V710.72H486.233V627.773Z" fill="#282781"/>
<path d="M486.233 575.625H450.883V607.663H486.233V575.625Z" fill="#282781"/>
</g>
<rect x="207.5" y="740.5" width="207" height="122" rx="20.5" fill="url(#paint3_linear_3860_1616)" stroke="url(#paint4_linear_3860_1616)"/>
<path fill-rule="evenodd" clip-rule="evenodd" d="M293.232 794.772H273.591L258.004 844H337.881L310.975 759H289.739L309.638 824.098H286.505L293.232 794.772Z" fill="white"/>
<path d="M363 759H341V844H363V759Z" fill="white"/>
<defs>
<linearGradient id="paint0_linear_3860_1616" x1="276.827" y1="206.522" x2="327.977" y2="311.237" gradientUnits="userSpaceOnUse">
<stop stop-color="#00D4C5"/>
<stop offset="1" stop-color="#015AE5"/>
</linearGradient>
<linearGradient id="paint1_linear_3860_1616" x1="234.2" y1="146.201" x2="350.291" y2="382.006" gradientUnits="userSpaceOnUse">
<stop stop-color="#00D4C5"/>
<stop offset="1" stop-color="#015AE5"/>
</linearGradient>
<linearGradient id="paint2_linear_3860_1616" x1="188.4" y1="62.8523" x2="410.281" y2="465.127" gradientUnits="userSpaceOnUse">
<stop stop-color="#00D4C5"/>
<stop offset="1" stop-color="#015AE5"/>
</linearGradient>
<linearGradient id="paint3_linear_3860_1616" x1="211" y1="751" x2="407.5" y2="856.5" gradientUnits="userSpaceOnUse">
<stop stop-color="#0080D4"/>
<stop offset="1" stop-color="#2226F2"/>
</linearGradient>
<linearGradient id="paint4_linear_3860_1616" x1="207" y1="746.5" x2="406" y2="858" gradientUnits="userSpaceOnUse">
<stop stop-color="#00CBFF"/>
<stop offset="1" stop-color="#2B3EFF"/>
</linearGradient>
<clipPath id="clip0_3860_1616">
<rect width="622" height="137" fill="white" transform="translate(0 575)"/>
</clipPath>
</defs>
</svg>
